<svg xmlns="http://www.w3.org/2000/svg" viewBox="0 0 128 128" fill="none">
  <path d="M 48.000 106.193 L 47.000 106.232 L 45.000 105.514 L 43.190 104.000 L 7.000 67.810 L 5.491 66.000 L 4.807 64.000 L 4.797 63.000 L 5.486 61.000 L 7.000 59.190 L 45.000 21.468 L 47.000 20.724 L 48.000 20.720 L 51.000 22.108 L 52.464 24.000 L 52.671 25.000 L 52.704 27.000 L 52.000 28.996 L 50.303 31.000 L 24.307 57.000 L 23.736 58.000 L 24.000 58.223 L 117.000 58.276 L 119.000 58.548 L 119.754 59.000 L 121.545 61.000 L 122.193 63.000 L 122.188 64.000 L 121.538 66.000 L 120.861 67.000 L 119.000 68.445 L 117.000 68.724 L 24.000 68.777 L 23.736 69.000 L 24.307 70.000 L 50.307 96.000 L 52.000 98.038 L 52.682 100.000 L 52.353 103.000 L 50.000 105.458 Z" fill="currentColor" fill-rule="evenodd"/>
</svg>
